# Blender 5.0.1
# www.blender.org
mtllib kronva.mtl
o element
v 1.415617 0.000000 44.694775
v 29.053480 0.000000 30.879911
v -15.209101 0.000000 -57.986355
v -16.061792 0.000000 -57.563343
v -17.761581 0.000000 -61.181232
v -23.239990 0.000000 -58.609791
v -24.014647 0.000000 -60.257320
v -39.117920 0.000000 -53.155262
v -37.752525 0.000000 -50.260944
v -41.954704 0.000000 -48.290638
v -40.505722 0.000000 -45.318386
v -42.043922 0.000000 -44.594822
v 1.415617 11.279778 44.694775
v 29.053480 11.279778 30.879911
v -15.209101 11.279778 -57.986355
v -16.061792 11.279778 -57.563343
v -17.761581 11.279778 -61.181232
v -23.239990 11.279778 -58.609791
v -24.014647 11.279778 -60.257320
v -39.117920 11.279778 -53.155262
v -37.752525 11.279778 -50.260944
v -41.954704 11.279778 -48.290638
v -40.505722 11.279778 -45.318386
v -42.043922 11.279778 -44.594822
vn -0.8992 -0.0000 0.4376
vn 0.4471 -0.0000 0.8945
vn 0.8951 -0.0000 -0.4458
vn -0.4444 -0.0000 -0.8958
vn 0.9051 -0.0000 -0.4252
vn -0.4249 -0.0000 -0.9052
vn 0.9050 -0.0000 -0.4255
vn -0.4255 -0.0000 -0.9049
vn -0.9044 -0.0000 0.4267
vn -0.4245 -0.0000 -0.9054
vn -0.8989 -0.0000 0.4382
vn -0.4257 -0.0000 -0.9049
vn -0.0000 1.0000 -0.0000
s 0
usemtl wall
f 12//1 1//1 13//1 24//1
f 1//2 2//2 14//2 13//2
f 2//3 3//3 15//3 14//3
f 3//4 4//4 16//4 15//4
f 4//5 5//5 17//5 16//5
f 5//6 6//6 18//6 17//6
f 6//7 7//7 19//7 18//7
f 7//8 8//8 20//8 19//8
f 8//9 9//9 21//9 20//9
f 9//10 10//10 22//10 21//10
f 10//11 11//11 23//11 22//11
f 11//12 12//12 24//12 23//12
usemtl roof
f 13//13 14//13 15//13 16//13 17//13 18//13 19//13 20//13 21//13 22//13 23//13 24//13
o element.001
v -130.635345 0.000000 126.055878
v -121.701340 0.000000 131.633286
v -120.859711 0.000000 130.175034
v -93.377579 0.000000 147.107529
v -94.258224 0.000000 148.510132
v -84.783470 0.000000 153.675583
v -88.657150 0.000000 158.974304
v -91.198631 0.000000 157.994629
v -97.028687 0.000000 165.964951
v -99.419685 0.000000 164.985275
v -97.435432 0.000000 161.623489
v -129.465561 0.000000 144.022888
v -130.362946 0.000000 145.692642
v -133.088318 0.000000 144.312180
v -126.527962 0.000000 132.501419
v -132.051086 0.000000 128.616180
v -141.576691 0.000000 144.734879
v -136.421341 0.000000 147.384491
v -137.424637 0.000000 149.432724
v -85.313507 0.000000 177.653793
v -69.071938 0.000000 156.425507
v -68.960403 0.000000 152.996857
v -126.371437 0.000000 118.887054
v -130.635345 13.892043 126.055878
v -121.701340 13.892043 131.633286
v -120.859711 13.892043 130.175034
v -93.377579 13.892043 147.107529
v -94.258224 13.892043 148.510132
v -84.783470 13.892043 153.675583
v -88.657150 13.892043 158.974304
v -91.198631 13.892043 157.994629
v -97.028687 13.892043 165.964951
v -99.419685 13.892043 164.985275
v -97.435432 13.892043 161.623489
v -129.465561 13.892043 144.022888
v -130.362946 13.892043 145.692642
v -133.088318 13.892043 144.312180
v -126.527962 13.892043 132.501419
v -132.051086 13.892043 128.616180
v -141.576691 13.892043 144.734879
v -136.421341 13.892043 147.384491
v -137.424637 13.892043 149.432724
v -85.313507 13.892043 177.653793
v -69.071938 13.892043 156.425507
v -68.960403 13.892043 152.996857
v -126.371437 13.892043 118.887054
vn -0.8595 -0.0000 -0.5112
vn -0.5296 -0.0000 0.8483
vn 0.8661 -0.0000 0.4999
vn -0.5246 -0.0000 0.8514
vn -0.8469 -0.0000 -0.5317
vn -0.4787 -0.0000 0.8780
vn -0.8073 -0.0000 -0.5902
vn 0.3597 -0.0000 -0.9331
vn -0.8071 -0.0000 -0.5904
vn 0.3791 -0.0000 -0.9253
vn 0.8612 -0.0000 0.5083
vn 0.4816 -0.0000 -0.8764
vn -0.8808 -0.0000 -0.4734
vn 0.4519 -0.0000 -0.8921
vn 0.8742 -0.0000 0.4856
vn 0.5754 -0.0000 -0.8179
vn -0.8609 -0.0000 -0.5088
vn -0.4571 -0.0000 0.8894
vn -0.8980 -0.0000 -0.4399
vn -0.4762 -0.0000 0.8793
vn 0.7942 -0.0000 0.6076
vn 0.9995 -0.0000 0.0325
vn 0.5108 -0.0000 -0.8597
vn -0.0000 1.0000 -0.0000
s 0
usemtl wall
f 47//14 25//14 48//14 70//14
f 25//15 26//15 49//15 48//15
f 26//16 27//16 50//16 49//16
f 27//17 28//17 51//17 50//17
f 28//18 29//18 52//18 51//18
f 29//19 30//19 53//19 52//19
f 30//20 31//20 54//20 53//20
f 31//21 32//21 55//21 54//21
f 32//22 33//22 56//22 55//22
f 33//23 34//23 57//23 56//23
f 34//24 35//24 58//24 57//24
f 35//25 36//25 59//25 58//25
f 36//26 37//26 60//26 59//26
f 37//27 38//27 61//27 60//27
f 38//28 39//28 62//28 61//28
f 39//29 40//29 63//29 62//29
f 40//30 41//30 64//30 63//30
f 41//31 42//31 65//31 64//31
f 42//32 43//32 66//32 65//32
f 43//33 44//33 67//33 66//33
f 44//34 45//34 68//34 67//34
f 45//35 46//35 69//35 68//35
f 46//36 47//36 70//36 69//36
usemtl roof
f 48//37 49//37 50//37 51//37 52//37 53//37 54//37 55//37 56//37 57//37 58//37 59//37 60//37 61//37 62//37 63//37 64//37 65//37 66//37 67//37 68//37 69//37 70//37
o element.002
v -69.270935 0.000000 68.739136
v -84.965584 0.000000 74.861382
v -68.809067 0.000000 107.188896
v -53.755238 0.000000 99.897720
v -69.270935 13.577417 68.739136
v -84.965584 13.577417 74.861382
v -68.809067 13.577417 107.188896
v -53.755238 13.577417 99.897720
vn 0.8952 -0.0000 -0.4458
vn -0.3634 -0.0000 -0.9316
vn -0.8945 -0.0000 0.4471
vn 0.4359 -0.0000 0.9000
vn -0.0000 1.0000 -0.0000
s 0
usemtl wall
f 74//38 71//38 75//38 78//38
f 71//39 72//39 76//39 75//39
f 72//40 73//40 77//40 76//40
f 73//41 74//41 78//41 77//41
usemtl roof
f 75//42 76//42 77//42 78//42
o Школа_№ 91
v 66.074165 0.000000 -113.023270
v 45.832909 0.000000 -105.943047
v 43.024158 0.000000 -99.464218
v 69.820534 0.000000 -45.797501
v 87.520676 0.000000 -54.558720
v 84.433006 0.000000 -60.981785
v 82.331955 0.000000 -59.979862
v 77.377205 0.000000 -71.000381
v 79.394653 0.000000 -71.946640
v 76.903351 0.000000 -77.646149
v 74.891479 0.000000 -76.722153
v 65.990852 0.000000 -97.037788
v 71.346535 0.000000 -99.531448
v 66.074165 16.737041 -113.023270
v 45.832909 16.737041 -105.943047
v 43.024158 16.737041 -99.464218
v 69.820534 16.737041 -45.797501
v 87.520676 16.737041 -54.558720
v 84.433006 16.737041 -60.981785
v 82.331955 16.737041 -59.979862
v 77.377205 16.737041 -71.000381
v 79.394653 16.737041 -71.946640
v 76.903351 16.737041 -77.646149
v 74.891479 16.737041 -76.722153
v 65.990852 16.737041 -97.037788
v 71.346535 16.737041 -99.531448
vn 0.9314 -0.0000 -0.3640
vn -0.3302 -0.0000 -0.9439
vn -0.9175 -0.0000 -0.3978
vn -0.8947 -0.0000 0.4467
vn 0.4436 -0.0000 0.8962
vn 0.9013 -0.0000 -0.4333
vn -0.4304 -0.0000 -0.9026
vn 0.9121 -0.0000 -0.4101
vn 0.4246 -0.0000 0.9054
vn 0.9163 -0.0000 -0.4005
vn -0.4174 -0.0000 -0.9087
vn 0.9159 -0.0000 -0.4013
vn 0.4221 -0.0000 0.9065
vn -0.0000 1.0000 -0.0000
s 0
usemtl wall
f 91//43 79//43 92//43 104//43
f 79//44 80//44 93//44 92//44
f 80//45 81//45 94//45 93//45
f 81//46 82//46 95//46 94//46
f 82//47 83//47 96//47 95//47
f 83//48 84//48 97//48 96//48
f 84//49 85//49 98//49 97//49
f 85//50 86//50 99//50 98//50
f 86//51 87//51 100//51 99//51
f 87//52 88//52 101//52 100//52
f 88//53 89//53 102//53 101//53
f 89//54 90//54 103//54 102//54
f 90//55 91//55 104//55 103//55
usemtl roof
f 92//56 93//56 94//56 95//56 96//56 97//56 98//56 99//56 100//56 101//56 102//56 103//56 104//56
o element.003
v 100.618530 0.000000 -19.215117
v 84.561363 0.000000 -53.111496
v 69.820534 0.000000 -45.797501
v 86.133949 0.000000 -12.357470
v 100.618530 15.433862 -19.215117
v 84.561363 15.433862 -53.111496
v 69.820534 15.433862 -45.797501
v 86.133949 15.433862 -12.357470
vn 0.4279 -0.0000 0.9038
vn 0.9037 -0.0000 -0.4281
vn -0.4445 -0.0000 -0.8958
vn -0.8988 -0.0000 0.4384
vn -0.0000 1.0000 -0.0000
s 0
usemtl wall
f 108//57 105//57 109//57 112//57
f 105//58 106//58 110//58 109//58
f 106//59 107//59 111//59 110//59
f 107//60 108//60 112//60 111//60
usemtl roof
f 109//61 110//61 111//61 112//61
o element.004
v 125.636078 0.000000 -35.167965
v 119.578117 0.000000 -32.507229
v 106.742348 0.000000 -58.132584
v 110.955574 0.000000 -60.347965
v 108.765205 0.000000 -64.789551
v 92.664635 0.000000 -56.495804
v 109.897789 0.000000 -23.067036
v 127.614700 0.000000 -30.915630
v 125.636078 16.164795 -35.167965
v 119.578117 16.164795 -32.507229
v 106.742348 16.164795 -58.132584
v 110.955574 16.164795 -60.347965
v 108.765205 16.164795 -64.789551
v 92.664635 16.164795 -56.495804
v 109.897789 16.164795 -23.067036
v 127.614700 16.164795 -30.915630
vn 0.9067 -0.0000 -0.4219
vn -0.4021 -0.0000 -0.9156
vn 0.8941 -0.0000 -0.4479
vn 0.4654 -0.0000 0.8851
vn 0.8969 -0.0000 -0.4423
vn -0.4579 -0.0000 -0.8890
vn -0.8888 -0.0000 0.4582
vn 0.4050 -0.0000 0.9143
vn -0.0000 1.0000 -0.0000
s 0
usemtl wall
f 120//62 113//62 121//62 128//62
f 113//63 114//63 122//63 121//63
f 114//64 115//64 123//64 122//64
f 115//65 116//65 124//65 123//65
f 116//66 117//66 125//66 124//66
f 117//67 118//67 126//67 125//67
f 118//68 119//68 127//68 126//68
f 119//69 120//69 128//69 127//69
usemtl roof
f 121//70 122//70 123//70 124//70 125//70 126//70 127//70 128//70
o element.005
v -123.732834 0.000000 -118.290169
v -136.428375 0.000000 -114.605942
v -122.976379 0.000000 -73.962723
v -119.760750 0.000000 -71.992256
v -100.354996 0.000000 -77.835953
v -106.066917 0.000000 -95.836472
v -115.446510 0.000000 -92.808868
v -123.732834 16.796194 -118.290169
v -136.428375 16.796194 -114.605942
v -122.976379 16.796194 -73.962723
v -119.760750 16.796194 -71.992256
v -100.354996 16.796194 -77.835953
v -106.066917 16.796194 -95.836472
v -115.446510 16.796194 -92.808868
vn 0.9510 -0.0000 -0.3093
vn -0.2787 -0.0000 -0.9604
vn -0.9494 -0.0000 0.3142
vn -0.5225 -0.0000 0.8526
vn 0.2883 -0.0000 0.9575
vn 0.9532 -0.0000 -0.3025
vn -0.3072 -0.0000 -0.9517
vn -0.0000 1.0000 -0.0000
s 0
usemtl wall
f 135//71 129//71 136//71 142//71
f 129//72 130//72 137//72 136//72
f 130//73 131//73 138//73 137//73
f 131//74 132//74 139//74 138//74
f 132//75 133//75 140//75 139//75
f 133//76 134//76 141//76 140//76
f 134//77 135//77 142//77 141//77
usemtl roof
f 136//78 137//78 138//78 139//78 140//78 141//78 142//78
o element.006
v -100.354996 0.000000 -77.835953
v -57.124165 0.000000 -91.560722
v -66.252357 0.000000 -120.815636
v -78.111877 0.000000 -117.053268
v -74.556503 0.000000 -105.843323
v -106.066917 0.000000 -95.836472
v -100.354996 16.447201 -77.835953
v -57.124165 16.447201 -91.560722
v -66.252357 16.447201 -120.815636
v -78.111877 16.447201 -117.053268
v -74.556503 16.447201 -105.843323
v -106.066917 16.447201 -95.836472
vn -0.9532 -0.0000 0.3025
vn 0.3026 -0.0000 0.9531
vn 0.9546 -0.0000 -0.2979
vn -0.3024 -0.0000 -0.9532
vn -0.9532 -0.0000 0.3023
vn -0.3027 -0.0000 -0.9531
vn -0.0000 1.0000 -0.0000
s 0
usemtl wall
f 148//79 143//79 149//79 154//79
f 143//80 144//80 150//80 149//80
f 144//81 145//81 151//81 150//81
f 145//82 146//82 152//82 151//82
f 146//83 147//83 153//83 152//83
f 147//84 148//84 154//84 153//84
usemtl roof
f 149//85 150//85 151//85 152//85 153//85 154//85
o element.007
v -30.930431 0.000000 -117.097099
v -31.978136 0.000000 -120.514618
v -63.075897 0.000000 -110.986069
v -57.124168 0.000000 -91.560722
v -18.346552 0.000000 -103.449249
v -23.250753 0.000000 -119.445885
v -30.930431 16.862518 -117.097099
v -31.978136 16.862518 -120.514618
v -63.075897 16.862518 -110.986069
v -57.124168 16.862518 -91.560722
v -18.346552 16.862518 -103.449249
v -23.250753 16.862518 -119.445885
vn -0.2925 -0.0000 -0.9563
vn 0.9561 -0.0000 -0.2931
vn -0.2930 -0.0000 -0.9561
vn -0.9561 -0.0000 0.2929
vn 0.2931 -0.0000 0.9561
vn -0.0000 1.0000 -0.0000
s 0
usemtl wall
f 160//86 155//86 161//86 166//86
f 155//87 156//87 162//87 161//87
f 156//88 157//88 163//88 162//88
f 157//89 158//89 164//89 163//89
f 158//90 159//90 165//90 164//90
f 159//87 160//87 166//87 165//87
usemtl roof
f 161//91 162//91 163//91 164//91 165//91 166//91
o Mary
v -16.680119 0.000000 -122.095253
v -19.527893 0.000000 -131.668747
v -26.232260 0.000000 -129.676163
v -18.346552 0.000000 -103.449249
v -10.778314 0.000000 -105.753532
v -15.721554 0.000000 -122.384682
v -16.680119 12.806626 -122.095253
v -19.527893 12.806626 -131.668747
v -26.232260 12.806626 -129.676163
v -18.346552 12.806626 -103.449249
v -10.778314 12.806626 -105.753532
v -15.721554 12.806626 -122.384682
vn -0.2891 -0.0000 -0.9573
vn 0.9585 -0.0000 -0.2851
vn -0.2849 -0.0000 -0.9586
vn -0.9576 -0.0000 0.2879
vn 0.2913 -0.0000 0.9566
vn 0.9586 -0.0000 -0.2849
vn -0.0000 1.0000 -0.0000
s 0
usemtl wall
f 172//92 167//92 173//92 178//92
f 167//93 168//93 174//93 173//93
f 168//94 169//94 175//94 174//94
f 169//95 170//95 176//95 175//95
f 170//96 171//96 177//96 176//96
f 171//97 172//97 178//97 177//97
usemtl roof
f 173//98 174//98 175//98 176//98 177//98 178//98
o element.008
v -123.732834 0.000000 -118.290169
v -119.202408 0.000000 -104.018860
v -66.252357 0.000000 -120.815636
v -70.649223 0.000000 -134.997818
v -123.732834 16.305609 -118.290169
v -119.202408 16.305609 -104.018860
v -66.252357 16.305609 -120.815636
v -70.649223 16.305609 -134.997818
vn -0.3002 -0.0000 -0.9539
vn -0.9531 -0.0000 0.3026
vn 0.3024 -0.0000 0.9532
vn 0.9551 -0.0000 -0.2961
vn -0.0000 1.0000 -0.0000
s 0
usemtl wall
f 182//99 179//99 183//99 186//99
f 179//100 180//100 184//100 183//100
f 180//101 181//101 185//101 184//101
f 181//102 182//102 186//102 185//102
usemtl roof
f 183//103 184//103 185//103 186//103
o element.009
v -26.232260 0.000000 -129.676163
v 0.261932 0.000000 -137.546356
v 2.914696 0.000000 -128.618546
v 11.329967 0.000000 -131.112106
v 3.633591 0.000000 -157.005005
v -31.270138 0.000000 -146.630173
v -26.232260 12.509840 -129.676163
v 0.261932 12.509840 -137.546356
v 2.914696 12.509840 -128.618546
v 11.329967 12.509840 -131.112106
v 3.633591 12.509840 -157.005005
v -31.270138 12.509840 -146.630173
vn -0.9586 -0.0000 0.2848
vn 0.2848 -0.0000 0.9586
vn 0.2841 -0.0000 0.9588
vn 0.9586 -0.0000 -0.2849
vn -0.2849 -0.0000 -0.9586
vn -0.0000 1.0000 -0.0000
s 0
usemtl wall
f 192//104 187//104 193//104 198//104
f 187//105 188//105 194//105 193//105
f 188//104 189//104 195//104 194//104
f 189//106 190//106 196//106 195//106
f 190//107 191//107 197//107 196//107
f 191//108 192//108 198//108 197//108
usemtl roof
f 193//109 194//109 195//109 196//109 197//109 198//109
o element.010
v 100.124794 0.000000 -140.531082
v 126.016754 0.000000 -148.480087
v 122.081787 0.000000 -161.281693
v 109.570557 0.000000 -157.440781
v 105.306816 0.000000 -171.322205
v 119.567902 0.000000 -175.697495
v 115.036629 0.000000 -190.447174
v 87.400620 0.000000 -181.963882
v 100.124794 16.367079 -140.531082
v 126.016754 16.367079 -148.480087
v 122.081787 16.367079 -161.281693
v 109.570557 16.367079 -157.440781
v 105.306816 16.367079 -171.322205
v 119.567902 16.367079 -175.697495
v 115.036629 16.367079 -190.447174
v 87.400620 16.367079 -181.963882
vn -0.9559 -0.0000 0.2936
vn 0.2935 -0.0000 0.9560
vn 0.9559 -0.0000 -0.2938
vn -0.2935 -0.0000 -0.9560
vn 0.9559 -0.0000 -0.2936
vn 0.2933 -0.0000 0.9560
vn 0.9559 -0.0000 -0.2937
vn -0.0000 1.0000 -0.0000
s 0
usemtl wall
f 206//110 199//110 207//110 214//110
f 199//111 200//111 208//111 207//111
f 200//112 201//112 209//112 208//112
f 201//113 202//113 210//113 209//113
f 202//114 203//114 211//114 210//114
f 203//115 204//115 212//115 211//115
f 204//116 205//116 213//116 212//116
f 205//113 206//113 214//113 213//113
usemtl roof
f 207//117 208//117 209//117 210//117 211//117 212//117 213//117 214//117
o Торговый_центр_«Сытный»
v 49.673828 0.000000 -26.104755
v 47.344250 0.000000 -24.958134
v 50.309269 0.000000 -18.969185
v 52.544106 0.000000 -20.071278
v 49.673828 4.493557 -26.104755
v 47.344250 4.493557 -24.958134
v 50.309269 4.493557 -18.969185
v 52.544106 4.493557 -20.071278
vn 0.9030 -0.0000 -0.4296
vn -0.4416 -0.0000 -0.8972
vn -0.8962 -0.0000 0.4437
vn 0.4423 -0.0000 0.8969
vn -0.0000 1.0000 -0.0000
s 0
usemtl wall
f 218//118 215//118 219//118 222//118
f 215//119 216//119 220//119 219//119
f 216//120 217//120 221//120 220//120
f 217//121 218//121 222//121 221//121
usemtl roof
f 219//122 220//122 221//122 222//122
o element.011
v 14.356487 0.000000 -37.848656
v 21.200321 0.000000 -41.110348
v 11.241012 0.000000 -61.982708
v 4.402780 0.000000 -58.721035
v 14.356487 4.494459 -37.848656
v 21.200321 4.494459 -41.110348
v 11.241012 4.494459 -61.982708
v 4.402780 4.494459 -58.721035
vn -0.9026 -0.0000 0.4304
vn 0.4302 -0.0000 0.9027
vn 0.9025 -0.0000 -0.4306
vn -0.4305 -0.0000 -0.9026
vn -0.0000 1.0000 -0.0000
s 0
usemtl wall
f 226//123 223//123 227//123 230//123
f 223//124 224//124 228//124 227//124
f 224//125 225//125 229//125 228//125
f 225//126 226//126 230//126 229//126
usemtl roof
f 227//127 228//127 229//127 230//127
o Грузинская_выпечка
v -49.951958 6.515305 -65.022057
v -47.839821 4.515305 -58.910583
v -36.314533 4.515305 -62.906822
v -38.432259 6.512614 -69.007149
v -49.951958 0.000000 -65.022057
v -47.839821 0.000000 -58.910583
v -36.314533 0.000000 -62.906822
v -38.432259 0.000000 -69.007149
vn -0.3269 -0.0000 -0.9450
vn -0.9451 -0.0000 0.3266
vn 0.3276 -0.0000 0.9448
vn 0.9447 -0.0000 -0.3280
vn 0.0968 0.9553 0.2792
s 0
usemtl wall
f 238//128 235//128 231//128 234//128
f 235//129 236//129 232//129 231//129
f 236//130 237//130 233//130 232//130
f 237//131 238//131 234//131 233//131
usemtl roof
f 231//132 232//132 233//132 234//132
o element.012
v -62.461624 0.000000 145.260269
v -59.903404 0.000000 144.826172
v -50.517578 0.000000 134.484726
v -61.145927 0.000000 123.486206
v -64.958244 0.000000 129.152298
v -66.752869 0.000000 128.395294
v -65.259155 0.000000 126.079880
v -76.695663 0.000000 119.133324
v -78.562828 0.000000 122.417206
v -83.796188 0.000000 119.199959
v -81.839844 0.000000 115.660042
v -110.029610 0.000000 98.872330
v -114.064919 0.000000 104.705353
v -124.681992 0.000000 97.981308
v -125.802147 0.000000 95.287338
v -123.934929 0.000000 91.246506
v -124.007324 0.000000 89.532181
v -126.921959 0.000000 82.652542
v -131.932495 0.000000 85.268372
v -140.376572 0.000000 96.700569
v -62.461624 10.552844 145.260269
v -59.903404 10.552844 144.826172
v -50.517578 10.552844 134.484726
v -61.145927 10.552844 123.486206
v -64.958244 10.552844 129.152298
v -66.752869 10.552844 128.395294
v -65.259155 10.552844 126.079880
v -76.695663 10.552844 119.133324
v -78.562828 10.552844 122.417206
v -83.796188 10.552844 119.199959
v -81.839844 10.552844 115.660042
v -110.029610 10.552844 98.872330
v -114.064919 10.552844 104.705353
v -124.681992 10.552844 97.981308
v -125.802147 10.552844 95.287338
v -123.934929 10.552844 91.246506
v -124.007324 10.552844 89.532181
v -126.921959 10.552844 82.652542
v -131.932495 10.552844 85.268372
v -140.376572 10.552844 96.700569
vn -0.5289 -0.0000 0.8487
vn 0.1673 -0.0000 0.9859
vn 0.7405 -0.0000 0.6721
vn 0.7191 -0.0000 -0.6949
vn -0.8297 -0.0000 -0.5582
vn 0.3887 -0.0000 -0.9214
vn 0.8403 -0.0000 0.5421
vn 0.5191 -0.0000 -0.8547
vn -0.8693 -0.0000 -0.4943
vn 0.5237 -0.0000 -0.8519
vn 0.8752 -0.0000 0.4837
vn 0.5117 -0.0000 -0.8592
vn -0.8224 -0.0000 -0.5689
vn 0.5350 -0.0000 -0.8448
vn 0.9234 -0.0000 -0.3839
vn 0.9078 -0.0000 0.4195
vn 0.9991 -0.0000 -0.0422
vn 0.9208 -0.0000 -0.3901
vn -0.4628 -0.0000 -0.8865
vn -0.8044 -0.0000 -0.5941
vn -0.0000 1.0000 -0.0000
s 0
usemtl wall
f 258//133 239//133 259//133 278//133
f 239//134 240//134 260//134 259//134
f 240//135 241//135 261//135 260//135
f 241//136 242//136 262//136 261//136
f 242//137 243//137 263//137 262//137
f 243//138 244//138 264//138 263//138
f 244//139 245//139 265//139 264//139
f 245//140 246//140 266//140 265//140
f 246//141 247//141 267//141 266//141
f 247//142 248//142 268//142 267//142
f 248//143 249//143 269//143 268//143
f 249//144 250//144 270//144 269//144
f 250//145 251//145 271//145 270//145
f 251//146 252//146 272//146 271//146
f 252//147 253//147 273//147 272//147
f 253//148 254//148 274//148 273//148
f 254//149 255//149 275//149 274//149
f 255//150 256//150 276//150 275//150
f 256//151 257//151 277//151 276//151
f 257//152 258//152 278//152 277//152
usemtl roof
f 259//153 260//153 261//153 262//153 263//153 264//153 265//153 266//153 267//153 268//153 269//153 270//153 271//153 272//153 273//153 274//153 275//153 276//153 277//153 278//153
o element.013
v -176.763245 0.000000 57.536808
v -168.978027 0.000000 72.910393
v -166.893555 0.000000 71.886353
v -163.650162 0.000000 78.354156
v -140.376572 0.000000 96.700569
v -131.932495 0.000000 85.268372
v -141.574188 0.000000 79.501663
v -149.153687 0.000000 73.478981
v -119.330368 0.000000 61.602276
v -120.026985 0.000000 59.921329
v -109.203476 0.000000 55.780579
v -105.218628 0.000000 58.129536
v -98.480858 0.000000 72.044662
v -126.921959 0.000000 82.652542
v -124.007324 0.000000 89.532181
v -69.270935 0.000000 68.739136
v -93.898232 0.000000 19.290472
v -98.145096 0.000000 20.982418
v -103.182999 0.000000 9.416185
v -183.143890 0.000000 41.339512
v -176.763245 9.511161 57.536808
v -168.978027 9.511161 72.910393
v -166.893555 9.511161 71.886353
v -163.650162 9.511161 78.354156
v -140.376572 9.511161 96.700569
v -131.932495 9.511161 85.268372
v -141.574188 9.511161 79.501663
v -149.153687 9.511161 73.478981
v -119.330368 9.511161 61.602276
v -120.026985 9.511161 59.921329
v -109.203476 9.511161 55.780579
v -105.218628 9.511161 58.129536
v -98.480858 9.511161 72.044662
v -126.921959 9.511161 82.652542
v -124.007324 9.511161 89.532181
v -69.270935 9.511161 68.739136
v -93.898232 9.511161 19.290472
v -98.145096 9.511161 20.982418
v -103.182999 9.511161 9.416185
v -183.143890 9.511161 41.339512
vn -0.9304 -0.0000 0.3665
vn -0.8921 -0.0000 0.4518
vn 0.4409 -0.0000 0.8975
vn -0.8939 -0.0000 0.4483
vn -0.6191 -0.0000 0.7853
vn 0.8044 -0.0000 0.5941
vn 0.5133 -0.0000 -0.8582
vn 0.6221 -0.0000 -0.7829
vn 0.3700 -0.0000 0.9290
vn 0.9238 -0.0000 -0.3828
vn 0.3573 -0.0000 0.9340
vn -0.5078 -0.0000 0.8615
vn -0.9000 -0.0000 0.4358
vn -0.3495 -0.0000 -0.9370
vn -0.9208 -0.0000 0.3901
vn 0.3551 -0.0000 0.9348
vn 0.8951 -0.0000 -0.4458
vn -0.3701 -0.0000 -0.9290
vn 0.9168 -0.0000 -0.3993
vn -0.3708 -0.0000 -0.9287
vn -0.0000 1.0000 -0.0000
s 0
usemtl wall
f 298//154 279//154 299//154 318//154
f 279//155 280//155 300//155 299//155
f 280//156 281//156 301//156 300//156
f 281//157 282//157 302//157 301//157
f 282//158 283//158 303//158 302//158
f 283//159 284//159 304//159 303//159
f 284//160 285//160 305//160 304//160
f 285//161 286//161 306//161 305//161
f 286//162 287//162 307//162 306//162
f 287//163 288//163 308//163 307//163
f 288//164 289//164 309//164 308//164
f 289//165 290//165 310//165 309//165
f 290//166 291//166 311//166 310//166
f 291//167 292//167 312//167 311//167
f 292//168 293//168 313//168 312//168
f 293//169 294//169 314//169 313//169
f 294//170 295//170 315//170 314//170
f 295//171 296//171 316//171 315//171
f 296//172 297//172 317//172 316//172
f 297//173 298//173 318//173 317//173
usemtl roof
f 299//174 300//174 301//174 302//174 303//174 304//174 305//174 306//174 307//174 308//174 309//174 310//174 311//174 312//174 313//174 314//174 315//174 316//174 317//174 318//174
o element.014
v -19.155416 0.000000 44.817177
v -13.727012 0.000000 40.921021
v -17.455519 0.000000 35.722382
v -22.883919 0.000000 39.629669
v -19.155416 7.363517 44.817177
v -13.727012 7.363517 40.921021
v -17.455519 7.363517 35.722382
v -22.883919 7.363517 39.629669
vn -0.8120 -0.0000 0.5836
vn 0.5831 -0.0000 0.8124
vn 0.8126 -0.0000 -0.5828
vn -0.5842 -0.0000 -0.8116
vn -0.0000 1.0000 -0.0000
s 0
usemtl wall
f 322//175 319//175 323//175 326//175
f 319//176 320//176 324//176 323//176
f 320//177 321//177 325//177 324//177
f 321//178 322//178 326//178 325//178
usemtl roof
f 323//179 324//179 325//179 326//179
o element.015
v -122.519218 0.000000 88.975632
v -119.833092 0.000000 96.111305
v -85.723755 0.000000 83.299377
v -88.409935 0.000000 76.152603
v -122.519218 16.362494 88.975632
v -119.833092 16.362494 96.111305
v -85.723755 16.362494 83.299377
v -88.409935 16.362494 76.152603
vn -0.3519 -0.0000 -0.9360
vn -0.9359 -0.0000 0.3523
vn 0.3516 -0.0000 0.9361
vn 0.9361 -0.0000 -0.3518
vn -0.0000 1.0000 -0.0000
s 0
usemtl wall
f 330//180 327//180 331//180 334//180
f 327//181 328//181 332//181 331//181
f 328//182 329//182 333//182 332//182
f 329//183 330//183 334//183 333//183
usemtl roof
f 331//184 332//184 333//184 334//184
o Coffeeмолка
v 52.555107 0.000000 -30.223616
v 51.323402 0.000000 -32.539043
v 48.096554 0.000000 -30.813549
v 49.322685 0.000000 -28.509251
v 52.555107 4.446899 -30.223616
v 51.323402 4.446899 -32.539043
v 48.096554 4.446899 -30.813549
v 49.322685 4.446899 -28.509251
vn 0.4685 -0.0000 0.8834
vn 0.8829 -0.0000 -0.4696
vn -0.4715 -0.0000 -0.8818
vn -0.8828 -0.0000 0.4697
vn -0.0000 1.0000 -0.0000
s 0
usemtl wall
f 338//185 335//185 339//185 342//185
f 335//186 336//186 340//186 339//186
f 336//187 337//187 341//187 340//187
f 337//188 338//188 342//188 341//188
usemtl roof
f 339//189 340//189 341//189 342//189
o Васька
v 56.222473 0.000000 -16.330997
v 58.440590 0.000000 -17.499887
v 56.378445 0.000000 -21.273586
v 54.160332 0.000000 -20.093565
v 56.222473 4.358301 -16.330997
v 58.440590 4.358301 -17.499887
v 56.378445 4.358301 -21.273586
v 54.160332 4.358301 -20.093565
vn -0.8769 -0.0000 0.4806
vn 0.4662 -0.0000 0.8847
vn 0.8775 -0.0000 -0.4795
vn -0.4697 -0.0000 -0.8828
vn -0.0000 1.0000 -0.0000
s 0
usemtl wall
f 346//190 343//190 347//190 350//190
f 343//191 344//191 348//191 347//191
f 344//192 345//192 349//192 348//192
f 345//193 346//193 350//193 349//193
usemtl roof
f 347//194 348//194 349//194 350//194
o element.016
v -20.425463 0.000000 -75.252029
v -37.128143 0.000000 -69.452415
v -35.801777 0.000000 -65.634148
v -19.099081 0.000000 -71.433769
v -20.425463 4.462518 -75.252029
v -37.128143 4.462518 -69.452415
v -35.801777 4.462518 -65.634148
v -19.099081 4.462518 -71.433769
vn 0.9446 -0.0000 -0.3281
vn -0.3280 -0.0000 -0.9447
vn -0.9446 -0.0000 0.3281
vn 0.3280 -0.0000 0.9447
vn -0.0000 1.0000 -0.0000
s 0
usemtl wall
f 354//195 351//195 355//195 358//195
f 351//196 352//196 356//196 355//196
f 352//197 353//197 357//197 356//197
f 353//198 354//198 358//198 357//198
usemtl roof
f 355//199 356//199 357//199 358//199
o element.017
v -16.045008 0.000000 -72.491287
v 7.295197 0.000000 -80.595322
v 5.968790 0.000000 -84.424706
v -17.371391 0.000000 -76.320686
v -16.045008 4.472931 -72.491287
v 7.295197 4.472931 -80.595322
v 5.968790 4.472931 -84.424706
v -17.371391 4.472931 -76.320686
vn -0.9449 -0.0000 0.3273
vn 0.3280 -0.0000 0.9447
vn 0.9449 -0.0000 -0.3273
vn -0.3280 -0.0000 -0.9447
vn -0.0000 1.0000 -0.0000
s 0
usemtl wall
f 362//200 359//200 363//200 366//200
f 359//201 360//201 364//201 363//201
f 360//202 361//202 365//202 364//202
f 361//203 362//203 366//203 365//203
usemtl roof
f 363//204 364//204 365//204 366//204
o element.018
v 65.245636 0.000000 -8.071240
v 63.345104 0.000000 -11.767015
v 60.263145 0.000000 -10.186226
v 62.163673 0.000000 -6.490450
v 65.245636 4.399900 -8.071240
v 63.345104 4.399900 -11.767015
v 60.263145 4.399900 -10.186226
v 62.163673 4.399900 -6.490450
vn 0.4564 -0.0000 0.8898
vn 0.8893 -0.0000 -0.4573
vn -0.4564 -0.0000 -0.8898
vn -0.8893 -0.0000 0.4573
vn -0.0000 1.0000 -0.0000
s 0
usemtl wall
f 370//205 367//205 371//205 374//205
f 367//206 368//206 372//206 371//206
f 368//207 369//207 373//207 372//207
f 369//208 370//208 374//208 373//208
usemtl roof
f 371//209 372//209 373//209 374//209
o element.019
v 62.163673 0.000000 -6.490450
v 64.064201 0.000000 -2.794676
v 67.146172 0.000000 -4.375467
v 65.245636 0.000000 -8.071240
v 62.163673 4.259235 -6.490450
v 64.064201 4.259235 -2.794676
v 67.146172 4.259235 -4.375467
v 65.245636 4.259235 -8.071240
vn -0.4564 -0.0000 -0.8898
vn -0.8893 -0.0000 0.4573
vn 0.4564 -0.0000 0.8898
vn 0.8893 -0.0000 -0.4573
vn -0.0000 1.0000 -0.0000
s 0
usemtl wall
f 378//210 375//210 379//210 382//210
f 375//211 376//211 380//211 379//211
f 376//212 377//212 381//212 380//212
f 377//213 378//213 382//213 381//213
usemtl roof
f 379//214 380//214 381//214 382//214
o element.020
v -47.817944 0.000000 -26.961891
v -47.539242 0.000000 -30.256945
v -54.834614 0.000000 -25.147480
v -49.774239 0.000000 -19.047100
v -46.084755 0.000000 -21.351366
v -46.368965 0.000000 -23.132483
v -47.817944 4.659328 -26.961891
v -47.539242 4.659328 -30.256945
v -54.834614 4.659328 -25.147480
v -49.774239 4.659328 -19.047100
v -46.084755 4.659328 -21.351366
v -46.368965 4.659328 -23.132483
vn 0.9353 -0.0000 -0.3539
vn 0.9964 -0.0000 0.0843
vn -0.5737 -0.0000 -0.8191
vn -0.7697 -0.0000 0.6384
vn 0.5297 -0.0000 0.8482
vn 0.9875 -0.0000 -0.1576
vn -0.0000 1.0000 -0.0000
s 0
usemtl wall
f 388//215 383//215 389//215 394//215
f 383//216 384//216 390//216 389//216
f 384//217 385//217 391//217 390//217
f 385//218 386//218 392//218 391//218
f 386//219 387//219 393//219 392//219
f 387//220 388//220 394//220 393//220
usemtl roof
f 389//221 390//221 391//221 392//221 393//221 394//221
o element.021
v 122.125443 19.671604 -21.108196
v 128.897446 19.671604 -4.855782
v 132.375076 19.671604 -6.214003
v 133.729492 19.671604 -2.918995
v 108.967957 19.671604 7.133968
v 107.033920 19.671604 2.881622
v 111.676369 19.671604 1.144901
v 104.514351 19.671604 -13.760571
v 127.614700 19.671604 -30.915630
v 86.133949 19.671604 -12.357470
v 104.331482 19.671604 23.297695
v 107.402374 19.671604 24.143635
v 144.932175 19.671604 9.815533
v 122.125443 0.000000 -21.108196
v 128.897446 0.000000 -4.855782
v 132.375076 0.000000 -6.214003
v 133.729492 0.000000 -2.918995
v 108.967957 0.000000 7.133968
v 107.033920 0.000000 2.881622
v 111.676369 0.000000 1.144901
v 104.514351 0.000000 -13.760571
v 127.614700 0.000000 -30.915630
v 86.133949 0.000000 -12.357470
v 104.331482 0.000000 23.297695
v 107.402374 0.000000 24.143635
v 144.932175 0.000000 9.815533
vn -0.2656 -0.0000 0.9641
vn 0.9013 -0.0000 -0.4331
vn 0.9203 -0.0000 -0.3913
vn -0.9249 -0.0000 0.3802
vn -0.3762 -0.0000 -0.9266
vn 0.3850 -0.0000 0.9229
vn -0.9231 -0.0000 0.3846
vn -0.4084 -0.0000 -0.9128
vn 0.3638 -0.0000 0.9315
vn -0.0000 1.0000 -0.0000
vn 0.9103 -0.0000 -0.4140
vn -0.8907 -0.0000 0.4546
vn 0.3504 -0.0000 0.9366
vn 0.3567 -0.0000 0.9342
s 0
usemtl roof
f 397//231 398//231 399//231 405//231 406//231 407//231 403//231
f 400//231 401//231 402//231 395//231 396//231 397//231 403//231 404//231 405//231 399//231
usemtl wall
f 418//222 419//222 406//222 405//222
f 414//223 415//223 402//223 401//223
f 420//224 416//224 403//224 407//224
f 410//225 411//225 398//225 397//225
f 411//226 412//226 399//226 398//226
f 415//227 408//227 395//227 402//227
f 408//228 409//228 396//228 395//228
f 416//229 417//229 404//229 403//229
f 409//230 410//230 397//230 396//230
f 412//232 413//232 400//232 399//232
f 417//233 418//233 405//233 404//233
f 413//234 414//234 401//234 400//234
f 419//235 420//235 407//235 406//235
o element.022
v 43.435852 14.440466 -159.988632
v 31.058279 14.440466 -156.715714
v 28.756573 14.440466 -164.474655
v 70.949356 14.440466 -176.887360
v 76.622665 14.440466 -175.529373
v 88.806061 14.440466 -138.014969
v 87.691513 14.440466 -135.766296
v 41.485741 14.440466 -121.627907
v 35.594841 14.440466 -141.375931
v 39.830318 14.440466 -142.611618
v 38.687805 14.440466 -146.975327
v 46.350666 14.440466 -148.834457
v 50.775543 14.440466 -155.090668
v 68.302505 14.440466 -160.701447
v 69.027031 14.440466 -158.430542
v 66.541496 14.440466 -157.628998
v 69.322578 14.440466 -148.946136
v 71.039055 14.440466 -149.502762
v 71.568520 14.440466 -147.866379
v 52.375183 14.440466 -141.721222
v 51.076614 14.440466 -145.784363
v 53.506432 14.440466 -146.563629
v 43.435852 0.000000 -159.988632
v 31.058279 0.000000 -156.715714
v 28.756573 0.000000 -164.474655
v 70.949356 0.000000 -176.887360
v 76.622665 0.000000 -175.529373
v 88.806061 0.000000 -138.014969
v 87.691513 0.000000 -135.766296
v 41.485741 0.000000 -121.627907
v 35.594841 0.000000 -141.375931
v 39.830318 0.000000 -142.611618
v 38.687805 0.000000 -146.975327
v 46.350666 0.000000 -148.834457
v 50.775543 0.000000 -155.090668
v 68.302505 0.000000 -160.701447
v 69.027031 0.000000 -158.430542
v 66.541496 0.000000 -157.628998
v 69.322578 0.000000 -148.946136
v 71.039055 0.000000 -149.502762
v 71.568520 0.000000 -147.866379
v 52.375183 0.000000 -141.721222
v 51.076614 0.000000 -145.784363
v 53.506432 0.000000 -146.563629
vn 0.2926 -0.0000 0.9562
vn 0.3049 -0.0000 0.9524
vn -0.9675 -0.0000 0.2528
vn -0.9527 -0.0000 0.3040
vn 0.9525 -0.0000 -0.3044
vn 0.9524 -0.0000 -0.3050
vn -0.3069 -0.0000 -0.9517
vn -0.9674 -0.0000 0.2533
vn -0.3049 -0.0000 -0.9524
vn -0.9583 -0.0000 0.2859
vn -0.2801 -0.0000 -0.9600
vn 0.3085 -0.0000 0.9512
vn 0.8960 -0.0000 0.4441
vn -0.2822 -0.0000 -0.9593
vn 0.2328 -0.0000 -0.9725
vn -0.9523 -0.0000 0.3050
vn -0.2358 -0.0000 -0.9718
vn 0.2556 -0.0000 0.9668
vn 0.9511 -0.0000 -0.3089
vn -0.9587 -0.0000 0.2844
vn -0.0000 1.0000 -0.0000
vn -0.9514 -0.0000 0.3078
vn 0.3054 -0.0000 0.9522
s 0
usemtl roof
f 440//256 428//256 427//256 439//256
f 430//256 429//256 428//256 440//256 441//256 442//256 433//256 434//256 435//256 436//256 437//256 438//256 439//256 427//256 426//256 425//256 424//256 423//256 422//256 421//256 432//256 431//256
usemtl wall
f 450//236 449//236 427//236 428//236
f 455//237 456//237 434//237 433//237
f 443//238 454//238 432//238 421//238
f 456//239 457//239 435//239 434//239
f 462//240 463//240 441//240 440//240
f 464//241 455//241 433//241 442//241
f 457//242 458//242 436//242 435//242
f 453//243 452//243 430//243 431//243
f 461//244 462//244 440//244 439//244
f 451//245 450//245 428//245 429//245
f 452//246 451//246 429//246 430//246
f 459//247 460//247 438//247 437//247
f 449//248 448//248 426//248 427//248
f 446//249 445//249 423//249 424//249
f 447//250 446//250 424//250 425//250
f 458//251 459//251 437//251 436//251
f 454//252 453//252 431//252 432//252
f 444//253 443//253 421//253 422//253
f 448//254 447//254 425//254 426//254
f 445//255 444//255 422//255 423//255
f 460//257 461//257 439//257 438//257
f 463//258 464//258 442//258 441//258
o element.023
v 41.485741 13.911600 -121.627907
v 16.368063 13.911600 -114.169304
v 3.633591 13.911600 -157.005005
v 28.756573 13.911600 -164.474655
v 29.241560 13.911600 -146.986374
v 29.665121 13.911600 -145.594879
v 26.599972 13.911600 -144.670914
v 28.556149 13.911600 -138.147598
v 31.370516 13.911600 -138.993652
v 31.905542 13.911600 -137.212540
v 14.216797 13.911600 -131.913620
v 13.754229 13.911600 -133.449829
v 16.094896 13.911600 -134.151154
v 14.155458 13.911600 -140.618805
v 12.009850 13.911600 -139.973145
v 11.502701 13.911600 -141.676331
v 41.485741 0.000000 -121.627907
v 16.368063 0.000000 -114.169304
v 3.633591 0.000000 -157.005005
v 28.756573 0.000000 -164.474655
v 29.241560 0.000000 -146.986374
v 29.665121 0.000000 -145.594879
v 26.599972 0.000000 -144.670914
v 28.556149 0.000000 -138.147598
v 31.370516 0.000000 -138.993652
v 31.905542 0.000000 -137.212540
v 14.216797 0.000000 -131.913620
v 13.754229 0.000000 -133.449829
v 16.094896 0.000000 -134.151154
v 14.155458 0.000000 -140.618805
v 12.009850 0.000000 -139.973145
v 11.502701 0.000000 -141.676331
vn 0.9579 -0.0000 -0.2872
vn 0.9575 -0.0000 -0.2883
vn -0.2870 -0.0000 -0.9579
vn 0.2847 -0.0000 0.9586
vn 0.2870 -0.0000 0.9579
vn -0.9579 -0.0000 0.2872
vn -0.9585 -0.0000 0.2850
vn 0.2868 -0.0000 0.9580
vn 0.2879 -0.0000 0.9577
vn -0.2850 -0.0000 -0.9585
vn -0.9567 -0.0000 0.2912
vn -0.2882 -0.0000 -0.9576
vn -0.2886 -0.0000 -0.9574
vn 0.9586 -0.0000 -0.2848
vn -0.0000 1.0000 -0.0000
vn -0.9577 -0.0000 0.2877
vn 0.9584 -0.0000 -0.2854
s 0
usemtl roof
f 465//273 468//273 470//273 471//273 472//273 473//273 474//273 466//273
f 476//273 477//273 478//273 479//273 480//273 469//273 470//273 468//273 467//273 466//273 474//273 475//273
usemtl wall
f 493//259 494//259 478//259 477//259
f 491//260 492//260 476//260 475//260
f 490//261 491//261 475//261 474//261
f 482//262 481//262 465//262 466//262
f 492//263 493//263 477//263 476//263
f 487//264 488//264 472//264 471//264
f 483//265 482//265 466//265 467//265
f 496//266 485//266 469//266 480//266
f 488//267 489//267 473//267 472//267
f 484//268 483//268 467//268 468//268
f 485//269 486//269 470//269 469//269
f 494//270 495//270 479//270 478//270
f 486//271 487//271 471//271 470//271
f 481//272 484//272 468//272 465//272
f 489//274 490//274 474//274 473//274
f 495//275 496//275 480//275 479//275
o ТЦ_«Сытный»
v 23.323406 0.000000 -87.174370
v 19.868099 0.000000 -84.803238
v 15.844364 0.000000 -74.995972
v 11.436039 0.000000 -72.246368
v 31.460590 0.000000 -32.928440
v 46.708702 0.000000 -41.132847
v 23.323406 4.631458 -87.174370
v 19.868099 4.631458 -84.803238
v 15.844364 4.631458 -74.995972
v 11.436039 4.631458 -72.246368
v 31.460590 4.631458 -32.928440
v 46.708702 4.631458 -41.132847
vn 0.8916 -0.0000 -0.4529
vn -0.5658 -0.0000 -0.8245
vn -0.9252 -0.0000 -0.3796
vn -0.5292 -0.0000 -0.8485
vn -0.8911 -0.0000 0.4538
vn 0.4738 -0.0000 0.8806
vn -0.0000 1.0000 -0.0000
s 0
usemtl wall
f 502//276 497//276 503//276 508//276
f 497//277 498//277 504//277 503//277
f 498//278 499//278 505//278 504//278
f 499//279 500//279 506//279 505//279
f 500//280 501//280 507//280 506//280
f 501//281 502//281 508//281 507//281
usemtl roof
f 503//282 504//282 505//282 506//282 507//282 508//282
o element.024
v 28.251152 0.000000 59.978832
v 29.566452 0.000000 60.023350
v 30.664391 0.000000 59.310898
v 31.154831 0.000000 58.086380
v 30.786987 0.000000 56.683758
v 29.627728 0.000000 55.815475
v 28.178665 0.000000 55.871143
v 27.153183 0.000000 56.694916
v 26.779778 0.000000 57.952831
v 27.197788 0.000000 59.199604
v 28.251152 4.555737 59.978832
v 29.566452 4.555737 60.023350
v 30.664391 4.555737 59.310898
v 31.154831 4.555737 58.086380
v 30.786987 4.555737 56.683758
v 29.627728 4.555737 55.815475
v 28.178665 4.555737 55.871143
v 27.153183 4.555737 56.694916
v 26.779778 4.555737 57.952831
v 27.197788 4.555737 59.199604
v 27.799744 0.000000 63.930679
v 35.206642 0.000000 59.065952
v 30.591881 0.000000 52.030602
v 23.184982 0.000000 56.895317
v 27.799744 4.823838 63.930679
v 35.206642 4.823838 59.065952
v 30.591881 4.823838 52.030602
v 23.184982 4.823838 56.895317
v -42.674931 0.000000 62.639229
v -27.626900 0.000000 54.613239
v -45.327332 0.000000 21.974190
v -35.596371 0.000000 16.942654
v -42.752277 0.000000 4.029518
v -53.118561 0.000000 8.916309
v -65.390366 0.000000 -17.756039
v -46.719978 0.000000 -30.835796
v -56.272110 0.000000 -50.506084
v -95.139572 0.000000 -38.584560
v -42.674931 16.384218 62.639229
v -27.626900 16.384218 54.613239
v -45.327332 16.384218 21.974190
v -35.596371 16.384218 16.942654
v -42.752277 16.384218 4.029518
v -53.118561 16.384218 8.916309
v -65.390366 16.384218 -17.756039
v -46.719978 16.384218 -30.835796
v -56.272110 16.384218 -50.506084
v -95.139572 16.384218 -38.584560
v -71.397736 0.000000 -45.830929
v -77.327187 0.000000 -64.131973
v -84.271362 0.000000 -62.017056
v -78.275055 0.000000 -43.727123
v -71.397736 4.581200 -45.830929
v -77.327187 4.581200 -64.131973
v -84.271362 4.581200 -62.017056
v -78.275055 4.581200 -43.727123
v -33.612324 0.000000 20.627346
v -25.163233 0.000000 16.052185
v -36.264950 0.000000 -4.486355
v -44.847767 0.000000 0.155575
v -33.612324 4.477401 20.627346
v -25.163233 4.477401 16.052185
v -36.264950 4.477401 -4.486355
v -44.847767 4.477401 0.155575
v -41.487804 0.000000 62.004723
v -33.975086 0.000000 74.917862
v -26.261539 0.000000 69.017990
v -33.428741 0.000000 57.707874
v -41.487804 13.624130 62.004723
v -33.975086 13.624130 74.917862
v -26.261539 13.624130 69.017990
v -33.428741 13.624130 57.707874
v -34.956001 0.000000 75.630295
v -19.105541 0.000000 99.686554
v 27.816486 0.000000 67.170074
v 28.502014 0.000000 68.238739
v 39.219452 0.000000 60.835892
v 38.522774 0.000000 59.778366
v 82.367363 0.000000 28.296495
v 67.653496 0.000000 4.463291
v 42.802628 0.000000 20.237637
v 51.067932 0.000000 32.593994
v 30.653137 0.000000 46.075008
v 29.488304 0.000000 44.594471
v 28.613297 0.000000 44.427498
v 27.760582 0.000000 44.694672
v 27.091793 0.000000 45.384857
v 26.868866 0.000000 46.331074
v 19.523285 0.000000 51.184650
v 18.653851 0.000000 51.017677
v 17.801136 0.000000 51.284847
v 17.132343 0.000000 51.986164
v 16.903843 0.000000 52.921246
v 17.578217 0.000000 54.145760
v -5.316959 0.000000 69.663734
v -12.779613 0.000000 58.698746
v -34.956001 12.321994 75.630295
v -19.105541 12.321994 99.686554
v 27.816486 12.321994 67.170074
v 28.502014 12.321994 68.238739
v 39.219452 12.321994 60.835892
v 38.522774 12.321994 59.778366
v 82.367363 12.321994 28.296495
v 67.653496 12.321994 4.463291
v 42.802628 12.321994 20.237637
v 51.067932 12.321994 32.593994
v 30.653137 12.321994 46.075008
v 29.488304 12.321994 44.594471
v 28.613297 12.321994 44.427498
v 27.760582 12.321994 44.694672
v 27.091793 12.321994 45.384857
v 26.868866 12.321994 46.331074
v 19.523285 12.321994 51.184650
v 18.653851 12.321994 51.017677
v 17.801136 12.321994 51.284847
v 17.132343 12.321994 51.986164
v 16.903843 12.321994 52.921246
v 17.578217 12.321994 54.145760
v -5.316959 12.321994 69.663734
v -12.779613 12.321994 58.698746
vn -0.5947 -0.0000 0.8039
vn -0.0338 -0.0000 0.9994
vn 0.5443 -0.0000 0.8389
vn 0.9283 -0.0000 0.3718
vn 0.9673 -0.0000 -0.2537
vn 0.5995 -0.0000 -0.8004
vn -0.0384 -0.0000 -0.9993
vn -0.6263 -0.0000 -0.7796
vn -0.9587 -0.0000 -0.2846
vn -0.9481 -0.0000 0.3179
vn -0.0000 1.0000 -0.0000
vn -0.8362 -0.0000 0.5485
vn 0.5490 -0.0000 0.8358
vn 0.8362 -0.0000 -0.5485
vn -0.5490 -0.0000 -0.8358
vn -0.8878 -0.0000 0.4602
vn 0.4706 -0.0000 0.8823
vn 0.8791 -0.0000 -0.4767
vn 0.4593 -0.0000 0.8883
vn 0.8747 -0.0000 -0.4847
vn -0.4264 -0.0000 -0.9045
vn 0.9085 -0.0000 -0.4180
vn 0.5738 -0.0000 0.8190
vn 0.8995 -0.0000 -0.4368
vn -0.2932 -0.0000 -0.9560
vn 0.2925 -0.0000 0.9563
vn 0.9513 -0.0000 -0.3082
vn -0.2913 -0.0000 -0.9566
vn -0.9502 -0.0000 0.3115
vn -0.8767 -0.0000 0.4811
vn 0.4762 -0.0000 0.8794
vn 0.8797 -0.0000 -0.4755
vn -0.4757 -0.0000 -0.8796
vn -0.4705 -0.0000 -0.8824
vn -0.8644 -0.0000 0.5029
vn 0.6075 -0.0000 0.7943
vn 0.8447 -0.0000 -0.5353
vn -0.6068 -0.0000 -0.7948
vn -0.8350 -0.0000 0.5502
vn 0.5696 -0.0000 0.8219
vn -0.8417 -0.0000 0.5399
vn 0.5683 -0.0000 0.8228
vn 0.8351 -0.0000 -0.5501
vn 0.5833 -0.0000 0.8123
vn 0.8509 -0.0000 -0.5253
vn -0.5359 -0.0000 -0.8443
vn -0.8312 -0.0000 0.5560
vn -0.5510 -0.0000 -0.8345
vn 0.7859 -0.0000 -0.6183
vn 0.1874 -0.0000 -0.9823
vn -0.2990 -0.0000 -0.9543
vn -0.7181 -0.0000 -0.6959
vn -0.9734 -0.0000 -0.2293
vn -0.5513 -0.0000 -0.8343
vn 0.1886 -0.0000 -0.9821
vn -0.7237 -0.0000 -0.6901
vn -0.9714 -0.0000 -0.2374
vn -0.8759 -0.0000 0.4824
vn -0.5611 -0.0000 -0.8278
vn 0.8267 -0.0000 -0.5626
s 0
usemtl wall
f 518//283 509//283 519//283 528//283
f 509//284 510//284 520//284 519//284
f 510//285 511//285 521//285 520//285
f 511//286 512//286 522//286 521//286
f 512//287 513//287 523//287 522//287
f 513//288 514//288 524//288 523//288
f 514//289 515//289 525//289 524//289
f 515//290 516//290 526//290 525//290
f 516//291 517//291 527//291 526//291
f 517//292 518//292 528//292 527//292
f 532//294 529//294 533//294 536//294
f 529//295 530//295 534//295 533//295
f 530//296 531//296 535//296 534//296
f 531//297 532//297 536//297 535//297
f 546//298 537//298 547//298 556//298
f 537//299 538//299 548//299 547//299
f 538//300 539//300 549//300 548//300
f 539//301 540//301 550//301 549//301
f 540//302 541//302 551//302 550//302
f 541//303 542//303 552//303 551//303
f 542//304 543//304 553//304 552//304
f 543//305 544//305 554//305 553//305
f 544//306 545//306 555//306 554//306
f 545//307 546//307 556//307 555//307
f 560//308 557//308 561//308 564//308
f 557//309 558//309 562//309 561//309
f 558//310 559//310 563//310 562//310
f 559//311 560//311 564//311 563//311
f 568//312 565//312 569//312 572//312
f 565//313 566//313 570//313 569//313
f 566//314 567//314 571//314 570//314
f 567//315 568//315 572//315 571//315
f 576//316 573//316 577//316 580//316
f 573//317 574//317 578//317 577//317
f 574//318 575//318 579//318 578//318
f 575//319 576//319 580//319 579//319
f 604//320 581//320 605//320 628//320
f 581//321 582//321 606//321 605//321
f 582//322 583//322 607//322 606//322
f 583//323 584//323 608//323 607//323
f 584//324 585//324 609//324 608//324
f 585//325 586//325 610//325 609//325
f 586//326 587//326 611//326 610//326
f 587//327 588//327 612//327 611//327
f 588//328 589//328 613//328 612//328
f 589//329 590//329 614//329 613//329
f 590//330 591//330 615//330 614//330
f 591//331 592//331 616//331 615//331
f 592//332 593//332 617//332 616//332
f 593//333 594//333 618//333 617//333
f 594//334 595//334 619//334 618//334
f 595//335 596//335 620//335 619//335
f 596//336 597//336 621//336 620//336
f 597//337 598//337 622//337 621//337
f 598//333 599//333 623//333 622//333
f 599//338 600//338 624//338 623//338
f 600//339 601//339 625//339 624//339
f 601//340 602//340 626//340 625//340
f 602//341 603//341 627//341 626//341
f 603//342 604//342 628//342 627//342
usemtl roof
f 519//293 520//293 521//293 522//293 523//293 524//293 525//293 526//293 527//293 528//293
f 533//293 534//293 535//293 536//293
f 547//293 548//293 549//293 550//293 551//293 552//293 553//293 554//293 555//293 556//293
f 561//293 562//293 563//293 564//293
f 569//293 570//293 571//293 572//293
f 577//293 578//293 579//293 580//293
f 605//293 606//293 607//293 608//293 609//293 610//293 611//293 612//293 613//293 614//293 615//293 616//293 617//293 618//293 619//293 620//293 621//293 622//293 623//293 624//293 625//293 626//293 627//293 628//293
o element.025
v 60.263145 0.000000 -10.186226
v 58.424000 0.000000 -9.295640
v 59.923244 0.000000 -6.178719
v 30.368584 0.000000 8.003746
v 32.464161 0.000000 12.367453
v 34.777084 0.000000 15.350794
v 39.948990 0.000000 8.782891
v 64.064201 0.000000 -2.794676
v 60.263145 4.549376 -10.186226
v 58.424000 4.549376 -9.295640
v 59.923244 4.549376 -6.178719
v 30.368584 4.549376 8.003746
v 32.464161 4.549376 12.367453
v 34.777084 4.549376 15.350794
v 39.948990 4.549376 8.782891
v 64.064201 4.549376 -2.794676
vn 0.8893 -0.0000 -0.4573
vn -0.4358 -0.0000 -0.9000
vn -0.9012 -0.0000 0.4335
vn -0.4326 -0.0000 -0.9016
vn -0.9014 -0.0000 0.4329
vn -0.7903 -0.0000 0.6127
vn 0.7857 -0.0000 0.6187
vn 0.4328 -0.0000 0.9015
vn -0.0000 1.0000 -0.0000
s 0
usemtl wall
f 636//343 629//343 637//343 644//343
f 629//344 630//344 638//344 637//344
f 630//345 631//345 639//345 638//345
f 631//346 632//346 640//346 639//346
f 632//347 633//347 641//347 640//347
f 633//348 634//348 642//348 641//348
f 634//349 635//349 643//349 642//349
f 635//350 636//350 644//350 643//350
usemtl roof
f 637//351 638//351 639//351 640//351 641//351 642//351 643//351 644//351
